<?xml version="1.0" encoding="UTF-8"?>
<!-- Generated by Pixelmator Pro 3.6.17 -->
<svg width="1920" height="1080" viewBox="0 0 1920 1080" xmlns="http://www.w3.org/2000/svg">
    <path id="cartweel" fill="#d45b26" fill-rule="evenodd" stroke="none" d="M 1752 403.373535 L 1727.624878 403.373535 L 1727.624878 636.045227 L 1752 636.045227 Z M 1556.049316 542.976563 C 1560.481079 512.90332 1583.590088 492.010376 1614.612915 492.010376 C 1646.268921 492.010376 1669.694336 512.90332 1674.126221 543.293152 Z M 1670.327393 584.445923 C 1663.046631 605.338867 1639.621216 620.533813 1614.929443 620.533813 C 1583.273438 620.533813 1559.214844 597.424927 1555.416138 563.869568 L 1699.134521 564.186096 C 1699.45105 560.703918 1699.45105 557.53833 1699.45105 554.68927 C 1699.45105 505.622498 1664.312866 469.851196 1615.562622 469.851196 C 1566.179199 469.851196 1530.724487 505.622498 1530.724487 554.372742 C 1530.724487 605.338867 1566.49585 642.376465 1615.87915 642.376465 C 1651.333862 642.376465 1684.256104 619.584106 1694.069458 588.24469 Z M 1367.696045 542.976563 C 1372.127808 512.90332 1395.236816 492.010376 1426.259644 492.010376 C 1457.915649 492.010376 1481.341064 512.90332 1485.772949 543.293152 Z M 1481.974121 584.445923 C 1474.693359 605.338867 1451.267944 620.533813 1426.576172 620.533813 C 1394.920166 620.533813 1370.861572 597.424927 1367.062866 563.869568 L 1510.78125 564.186096 C 1511.097778 560.703918 1511.097778 557.53833 1511.097778 554.68927 C 1511.097778 505.622498 1475.959595 469.851196 1427.209351 469.851196 C 1377.825928 469.851196 1342.371216 505.622498 1342.371216 554.372742 C 1342.371216 605.338867 1378.142578 642.376465 1427.525879 642.376465 C 1462.980591 642.376465 1495.902832 619.584106 1505.716187 588.24469 Z M 1213.53125 476.182373 L 1185.357422 476.182373 L 1145.154297 612.303223 L 1099.56958 476.182373 L 1074.244751 476.182373 L 1128.376587 636.045227 L 1161.298828 636.045227 L 1199.602539 504.356262 L 1237.906372 636.045227 L 1270.828613 636.045227 L 1325.276978 476.182373 L 1299.952148 476.182373 L 1255.00061 612.303223 Z M 1046.704102 611.670105 C 1046.704102 623.066284 1040.372925 630.347168 1031.509155 630.347168 C 1022.645447 630.347168 1015.997742 623.382813 1015.997742 611.353577 L 1015.997742 496.125732 L 1057.467041 496.125732 L 1057.467041 476.182373 L 1015.997742 476.182373 L 1015.997742 438.828247 L 996.370972 438.828247 L 992.888855 476.182373 L 965.664673 476.182373 L 965.664673 496.125732 L 991.939209 496.125732 L 991.622559 608.821106 C 991.622559 629.71405 1005.55127 642.376465 1024.86145 642.376465 C 1043.538452 642.376465 1056.200928 630.663696 1056.200928 611.353577 L 1056.200928 579.064453 L 1046.704102 579.064453 Z M 934.008606 470.484253 C 914.381958 470.484253 899.187012 480.930786 889.690247 498.341614 L 889.690247 476.182373 L 866.264771 476.182373 L 866.264771 636.045227 L 890.323364 636.045227 L 890.323364 546.45874 C 890.323364 514.486145 906.784485 492.010376 931.792786 492.010376 C 938.123962 492.010376 947.304199 493.276672 955.53479 497.075317 L 955.53479 474.916138 C 948.253845 472.067078 940.656433 470.484253 934.008606 470.484253 Z M 730.143921 620.533813 C 694.689209 620.533813 669.047852 593.309631 669.047852 556.272095 C 669.047852 518.917969 694.689209 492.010376 730.143921 492.010376 C 765.282104 492.010376 791.240051 518.917969 791.240051 556.272095 C 791.240051 593.309631 765.282104 620.533813 730.143921 620.533813 Z M 791.55658 504.672791 C 777.944519 483.146667 754.835632 469.851196 727.294861 469.851196 C 679.494324 469.851196 644.989258 506.255615 644.989258 556.272095 C 644.989258 605.972046 679.494324 642.376465 727.294861 642.376465 C 755.152161 642.376465 777.944519 629.080933 791.55658 607.55481 L 791.55658 620.850342 C 791.55658 633.512817 799.470581 642.376465 815.298584 642.376465 C 831.126587 642.376465 838.407532 633.196167 838.407532 620.850342 L 838.407532 579.064453 L 828.910706 579.064453 L 828.910706 623.382813 C 828.910706 627.498108 826.061646 630.347168 822.262939 630.347168 C 818.464172 630.347168 815.931702 627.498108 815.931702 623.382813 L 815.615173 476.182373 L 791.55658 476.182373 Z M 625.045959 528.414795 C 619.031372 494.542908 586.425659 469.851196 547.805298 469.851196 C 499.688171 469.851196 464.550018 506.255615 464.550018 556.272095 C 464.550018 606.288574 499.371613 642.376465 547.805298 642.376465 C 585.475952 642.376465 618.081665 618.317871 625.362549 584.762451 L 601.620544 581.596924 C 595.289307 604.389221 573.763245 621.16687 547.805298 621.16687 C 513.93335 621.16687 488.608551 593.942749 488.608551 556.272095 C 488.608551 518.60144 514.249939 491.060669 547.805298 491.060669 C 573.130127 491.060669 595.605896 508.154907 601.620544 531.580383 Z"/>
    <g id="brandmark">
        <path id="Circle" fill="#d45b26" fill-rule="evenodd" stroke="none" d="M 250.551178 547.5 C 250.551178 475.979126 259.105469 418 269.657745 418 C 280.209991 418 288.764282 475.979126 288.764282 547.5 C 288.764282 619.020874 280.209991 677 269.657745 677 C 259.105469 677 250.551178 619.020874 250.551178 547.5 Z"/>
        <path id="Circle-copy" fill="#d45b26" fill-rule="evenodd" stroke="none" d="M 269.5 528.354797 C 341.020874 528.354797 399 536.909119 399 547.461365 C 399 558.013611 341.020874 566.567932 269.5 566.567932 C 197.979126 566.567932 140 558.013611 140 547.461365 C 140 536.909119 197.979126 528.354797 269.5 528.354797 Z"/>
        <path id="Circle-copy-2" fill="#d45b26" fill-rule="evenodd" stroke="none" d="M 256.060486 534.002991 C 306.633392 483.430054 353.679626 448.481445 361.141205 455.943054 C 368.602783 463.404602 333.654144 510.450806 283.081238 561.023743 C 232.508347 611.596619 185.462112 646.545288 178.000534 639.083679 C 170.538971 631.62207 205.487595 584.575867 256.060486 534.002991 Z"/>
        <path id="Circle-copy-3" fill="#d45b26" fill-rule="evenodd" stroke="none" d="M 283.19339 534.060486 C 333.766266 584.633423 368.714905 631.679626 361.253326 639.141235 C 353.791748 646.602783 306.745514 611.654175 256.172638 561.081238 C 205.599731 510.508362 170.651108 463.462097 178.112686 456.000549 C 185.574249 448.53894 232.620483 483.48761 283.19339 534.060486 Z"/>
        <path id="path1" fill="#ebe1d5" fill-rule="evenodd" stroke="none" d="M 301.801361 547.5 C 301.801361 529.768921 287.42746 515.39502 269.69635 515.39502 C 251.965256 515.39502 237.591354 529.768921 237.591354 547.5 C 237.591354 565.231079 251.965256 579.60498 269.69635 579.60498 C 287.42746 579.60498 301.801361 565.231079 301.801361 547.5 Z"/>
    </g>
</svg>
